<svg version="1.1" xmlns="http://www.w3.org/2000/svg" xmlns:xlink="http://www.w3.org/1999/xlink" width="96px" height="96px" viewBox="0,0,256,256"><g fill="none" fill-rule="evenodd" stroke="none" stroke-width="1" stroke-linecap="butt" stroke-linejoin="miter" stroke-miterlimit="10" stroke-dasharray="" stroke-dashoffset="0" font-family="none" font-weight="none" font-size="none" text-anchor="none" style="mix-blend-mode: normal"><g transform="scale(5.33333,5.33333)"><path d="M38,42h-28c-2.209,0 -4,-1.791 -4,-4v-28c0,-2.209 1.791,-4 4,-4h28c2.209,0 4,1.791 4,4v28c0,2.209 -1.791,4 -4,4z" fill="#181919"></path><path d="M34.257,34h-6.437l-13.991,-20h6.437zM28.587,32.304h2.563l-11.651,-16.608h-2.563z" fill="#ffffff"></path><path d="M15.866,34l7.203,-8.344l-0.942,-1.249l-8.304,9.593z" fill="#ffffff"></path><path d="M24.45,21.721l0.905,1.289l7.781,-9.01h-2z" fill="#ffffff"></path></g></g></svg>